# xmcd
#
# Track frame offsets: 
#        150
#        12550
#        22175
#        33715
#        46072
#        57270
#        75965
#        92612
#        110995
#        124510
#        138932
#        154517
#        166130
#        179072
#        191292
#        202937
#
# Disc length: 2931 seconds
#
# Revision: 0
# Processed by: cddbd v1.5.2PL0 Copyright (c) Steve Scherf et al.
# Submitted via: ExactAudioCopy v0.99pb5
#
DISCID=cc0b7110
DTITLE=Various Artist - Music Dreamer vol.3
DYEAR=1900
DGENRE=Country
TTITLE0=Five Hundred Miles
TTITLE1=Edel Weiss
TTITLE2=Rhythm of the Rain
TTITLE3=I love you Because
TTITLE4=One Day When We Were Young
TTITLE5=Nobody's Child
TTITLE6=Operator
TTITLE7=And I Love You So
TTITLE8=Tennessee Waltz
TTITLE9=Over and Over
TTITLE10=Crying In the Rain
TTITLE11=When a Child is Borne
TTITLE12=Handy Man
TTITLE13=Answer Me
TTITLE14=I'll Have to say I love you in a Song
TTITLE15=Leaving on a Jet Plane
EXTD=
EXTT0=
EXTT1=
EXTT2=
EXTT3=
EXTT4=
EXTT5=
EXTT6=
EXTT7=
EXTT8=
EXTT9=
EXTT10=
EXTT11=
EXTT12=
EXTT13=
EXTT14=
EXTT15=
PLAYORDER=
